<mxfile host="app.diagrams.net" agent="Mozilla/5.0 (Windows NT 10.0; Win64; x64; rv:140.0) Gecko/20100101 Firefox/140.0" version="28.2.5">
  <diagram name="Page-1" id="xD0kah7WTrYngQGZ2H88">
    <mxGraphModel dx="2009" dy="1210" grid="1" gridSize="10" guides="1" tooltips="1" connect="1" arrows="1" fold="1" page="1" pageScale="1" pageWidth="850" pageHeight="1100" math="0" shadow="0">
      <root>
        <mxCell id="0" />
        <mxCell id="1" parent="0" />
        <mxCell id="aIXM8nYyzmF28jnLC8Jy-2" value="" style="endArrow=classic;html=1;rounded=0;exitX=1;exitY=0.5;exitDx=0;exitDy=0;entryX=0;entryY=0.5;entryDx=0;entryDy=0;" edge="1" parent="1" target="aIXM8nYyzmF28jnLC8Jy-3">
          <mxGeometry width="50" height="50" relative="1" as="geometry">
            <mxPoint x="130" y="210" as="sourcePoint" />
            <mxPoint x="290" y="310" as="targetPoint" />
          </mxGeometry>
        </mxCell>
        <mxCell id="aIXM8nYyzmF28jnLC8Jy-4" value="" style="endArrow=classic;html=1;rounded=0;" edge="1" parent="1">
          <mxGeometry width="50" height="50" relative="1" as="geometry">
            <mxPoint x="350" y="319.5" as="sourcePoint" />
            <mxPoint x="480" y="320" as="targetPoint" />
          </mxGeometry>
        </mxCell>
        <mxCell id="aIXM8nYyzmF28jnLC8Jy-11" value="" style="rounded=0;whiteSpace=wrap;html=1;fillColor=#0050ef;fontColor=#ffffff;strokeColor=#001DBC;" vertex="1" parent="1">
          <mxGeometry x="42" y="169" width="120" height="60" as="geometry" />
        </mxCell>
        <mxCell id="aIXM8nYyzmF28jnLC8Jy-12" value="" style="rounded=0;whiteSpace=wrap;html=1;fillColor=#d80073;fontColor=#ffffff;strokeColor=#A50040;" vertex="1" parent="1">
          <mxGeometry x="230" y="290" width="120" height="60" as="geometry" />
        </mxCell>
        <mxCell id="aIXM8nYyzmF28jnLC8Jy-13" value="" style="rounded=0;whiteSpace=wrap;html=1;fillColor=#d80073;fontColor=#ffffff;strokeColor=#A50040;" vertex="1" parent="1">
          <mxGeometry x="480" y="290" width="120" height="60" as="geometry" />
        </mxCell>
        <mxCell id="aIXM8nYyzmF28jnLC8Jy-9" value="&lt;font face=&quot;Courier New&quot;&gt;&lt;b&gt;modal service&lt;/b&gt;&lt;/font&gt;" style="text;html=1;align=center;verticalAlign=middle;whiteSpace=wrap;rounded=0;" vertex="1" parent="1">
          <mxGeometry x="510" y="305" width="60" height="30" as="geometry" />
        </mxCell>
        <mxCell id="aIXM8nYyzmF28jnLC8Jy-7" value="&lt;font face=&quot;Courier New&quot;&gt;&lt;b&gt;compose service&lt;/b&gt;&lt;/font&gt;" style="text;html=1;align=center;verticalAlign=middle;whiteSpace=wrap;rounded=0;" vertex="1" parent="1">
          <mxGeometry x="260" y="305" width="60" height="30" as="geometry" />
        </mxCell>
        <mxCell id="aIXM8nYyzmF28jnLC8Jy-5" value="&lt;b&gt;&lt;font face=&quot;Courier New&quot;&gt;compose button component&lt;/font&gt;&lt;/b&gt;" style="text;html=1;align=center;verticalAlign=middle;whiteSpace=wrap;rounded=0;" vertex="1" parent="1">
          <mxGeometry x="70" y="184" width="60" height="30" as="geometry" />
        </mxCell>
        <mxCell id="aIXM8nYyzmF28jnLC8Jy-14" value="" style="endArrow=classic;html=1;rounded=0;exitX=1;exitY=0.5;exitDx=0;exitDy=0;entryX=0;entryY=0.5;entryDx=0;entryDy=0;" edge="1" parent="1" source="aIXM8nYyzmF28jnLC8Jy-11" target="aIXM8nYyzmF28jnLC8Jy-12">
          <mxGeometry width="50" height="50" relative="1" as="geometry">
            <mxPoint x="420" y="640" as="sourcePoint" />
            <mxPoint x="470" y="590" as="targetPoint" />
          </mxGeometry>
        </mxCell>
        <mxCell id="aIXM8nYyzmF28jnLC8Jy-15" value="" style="rounded=0;whiteSpace=wrap;html=1;fillColor=#0050ef;fontColor=#ffffff;strokeColor=#001DBC;" vertex="1" parent="1">
          <mxGeometry x="450" y="490" width="180" height="150" as="geometry" />
        </mxCell>
        <mxCell id="aIXM8nYyzmF28jnLC8Jy-16" value="&lt;font face=&quot;Courier New&quot;&gt;&lt;b&gt;modal component&lt;/b&gt;&lt;/font&gt;" style="text;html=1;align=center;verticalAlign=middle;whiteSpace=wrap;rounded=0;" vertex="1" parent="1">
          <mxGeometry x="510" y="505" width="60" height="30" as="geometry" />
        </mxCell>
        <mxCell id="aIXM8nYyzmF28jnLC8Jy-17" value="" style="endArrow=classic;html=1;rounded=0;entryX=0.5;entryY=1;entryDx=0;entryDy=0;exitX=0.5;exitY=0;exitDx=0;exitDy=0;" edge="1" parent="1" source="aIXM8nYyzmF28jnLC8Jy-15" target="aIXM8nYyzmF28jnLC8Jy-13">
          <mxGeometry width="50" height="50" relative="1" as="geometry">
            <mxPoint x="420" y="640" as="sourcePoint" />
            <mxPoint x="470" y="590" as="targetPoint" />
          </mxGeometry>
        </mxCell>
        <mxCell id="aIXM8nYyzmF28jnLC8Jy-18" value="" style="rounded=1;whiteSpace=wrap;html=1;fillColor=#1ba1e2;strokeColor=#006EAF;fontColor=#ffffff;" vertex="1" parent="1">
          <mxGeometry x="480" y="560" width="120" height="60" as="geometry" />
        </mxCell>
        <mxCell id="aIXM8nYyzmF28jnLC8Jy-19" value="&lt;font face=&quot;Courier New&quot;&gt;compose form&lt;/font&gt;" style="text;html=1;align=center;verticalAlign=middle;whiteSpace=wrap;rounded=0;" vertex="1" parent="1">
          <mxGeometry x="510" y="575" width="60" height="30" as="geometry" />
        </mxCell>
        <mxCell id="aIXM8nYyzmF28jnLC8Jy-21" value="" style="curved=1;endArrow=classic;html=1;rounded=0;entryX=0.194;entryY=0.836;entryDx=0;entryDy=0;entryPerimeter=0;" edge="1" parent="1" target="aIXM8nYyzmF28jnLC8Jy-26">
          <mxGeometry width="50" height="50" relative="1" as="geometry">
            <mxPoint x="600" y="320" as="sourcePoint" />
            <mxPoint x="650" y="270" as="targetPoint" />
            <Array as="points">
              <mxPoint x="650" y="320" />
              <mxPoint x="600" y="270" />
            </Array>
          </mxGeometry>
        </mxCell>
        <mxCell id="aIXM8nYyzmF28jnLC8Jy-26" value="" style="ellipse;shape=cloud;whiteSpace=wrap;html=1;fillColor=#b1ddf0;strokeColor=#10739e;" vertex="1" parent="1">
          <mxGeometry x="630" y="180" width="180" height="110" as="geometry" />
        </mxCell>
        <mxCell id="aIXM8nYyzmF28jnLC8Jy-20" value="&lt;div&gt;&lt;font face=&quot;Courier New&quot;&gt;isModalOpen()&lt;/font&gt;&lt;/div&gt;&lt;div&gt;&lt;font face=&quot;Courier New&quot;&gt;openModal()&lt;/font&gt;&lt;/div&gt;&lt;div&gt;&lt;font face=&quot;Courier New&quot;&gt;closeModal()&lt;/font&gt;&lt;/div&gt;" style="text;html=1;align=center;verticalAlign=middle;whiteSpace=wrap;rounded=0;" vertex="1" parent="1">
          <mxGeometry x="700" y="220" width="60" height="30" as="geometry" />
        </mxCell>
        <mxCell id="aIXM8nYyzmF28jnLC8Jy-27" value="&lt;h1 align=&quot;center&quot;&gt;&lt;font style=&quot;font-size: 41px;&quot;&gt;&lt;b&gt;&lt;font face=&quot;Courier New&quot;&gt;CONTENT PROJECTION&lt;/font&gt;&lt;/b&gt;&lt;/font&gt;&lt;/h1&gt;" style="text;html=1;whiteSpace=wrap;overflow=hidden;rounded=0;align=center;" vertex="1" parent="1">
          <mxGeometry x="175" y="30" width="500" height="90" as="geometry" />
        </mxCell>
        <mxCell id="aIXM8nYyzmF28jnLC8Jy-29" value="" style="endArrow=classic;html=1;rounded=0;exitX=0;exitY=1;exitDx=0;exitDy=0;entryX=0.5;entryY=0;entryDx=0;entryDy=0;" edge="1" parent="1" source="aIXM8nYyzmF28jnLC8Jy-15" target="aIXM8nYyzmF28jnLC8Jy-31">
          <mxGeometry width="50" height="50" relative="1" as="geometry">
            <mxPoint x="420" y="640" as="sourcePoint" />
            <mxPoint x="400" y="720" as="targetPoint" />
          </mxGeometry>
        </mxCell>
        <mxCell id="aIXM8nYyzmF28jnLC8Jy-40" style="edgeStyle=orthogonalEdgeStyle;rounded=0;orthogonalLoop=1;jettySize=auto;html=1;entryX=0.5;entryY=1;entryDx=0;entryDy=0;" edge="1" parent="1" source="aIXM8nYyzmF28jnLC8Jy-31" target="aIXM8nYyzmF28jnLC8Jy-34">
          <mxGeometry relative="1" as="geometry" />
        </mxCell>
        <mxCell id="aIXM8nYyzmF28jnLC8Jy-41" style="edgeStyle=orthogonalEdgeStyle;rounded=0;orthogonalLoop=1;jettySize=auto;html=1;entryX=0;entryY=0.5;entryDx=0;entryDy=0;" edge="1" parent="1" source="aIXM8nYyzmF28jnLC8Jy-31" target="aIXM8nYyzmF28jnLC8Jy-33">
          <mxGeometry relative="1" as="geometry" />
        </mxCell>
        <mxCell id="aIXM8nYyzmF28jnLC8Jy-31" value="" style="ellipse;whiteSpace=wrap;html=1;fillColor=#76608a;fontColor=#ffffff;strokeColor=#432D57;" vertex="1" parent="1">
          <mxGeometry x="330" y="730" width="100" height="50" as="geometry" />
        </mxCell>
        <mxCell id="aIXM8nYyzmF28jnLC8Jy-32" value="&lt;font face=&quot;Courier New&quot;&gt;SEND&lt;/font&gt;" style="text;html=1;align=center;verticalAlign=middle;whiteSpace=wrap;rounded=0;" vertex="1" parent="1">
          <mxGeometry x="345" y="740" width="60" height="30" as="geometry" />
        </mxCell>
        <mxCell id="aIXM8nYyzmF28jnLC8Jy-33" value="SALVA IL MESSAGGIO" style="text;html=1;align=center;verticalAlign=middle;whiteSpace=wrap;rounded=0;fontFamily=Courier New;fontSize=13;" vertex="1" parent="1">
          <mxGeometry x="175" y="790" width="100" height="30" as="geometry" />
        </mxCell>
        <mxCell id="aIXM8nYyzmF28jnLC8Jy-34" value="onSend --- closeModal()" style="text;html=1;align=center;verticalAlign=middle;whiteSpace=wrap;rounded=0;fontFamily=Courier New;fontSize=13;" vertex="1" parent="1">
          <mxGeometry x="310" y="870" width="175" height="30" as="geometry" />
        </mxCell>
      </root>
    </mxGraphModel>
  </diagram>
</mxfile>
